
<svg xmlns="http://www.w3.org/2000/svg" version="1.1" xmlns:xlink="http://www.w3.org/1999/xlink" preserveAspectRatio="none" x="0px" y="0px" width="205px" height="199px" viewBox="0 0 205 199">
<defs>
<path id="Layer0_0_1_STROKES" stroke="#111111" stroke-width="15" stroke-linejoin="round" stroke-linecap="round" fill="none" d="
M 130.6886734008789 11.050000000000011
L 170.6097183227539 52.650000000000006 197.86350860595704 52.650000000000006
M 34.724623107910155 11.050000000000011
L 74.64566802978516 52.650000000000006 122.62769317626953 52.650000000000006 82.70664825439454 11.050000000000011
M 16.059615325927737 52.650000000000006
L 74.64566802978516 52.650000000000006
M 81.12324142456055 84.6
L 81.12324142456055 154.95 138.89359970092772 121.4 81.12324142456055 84.6 Z
M 122.62769317626953 52.650000000000006
L 170.6097183227539 52.650000000000006"/>

<path id="Layer0_0_MEMBER_0_1_STROKES" stroke="#111111" stroke-width="15" stroke-linejoin="round" stroke-linecap="round" fill="none" d="
M 20.008208465576175 7.504645538330067
L 185.59417724609375 7.504645538330067
Q 197.87757568359376 7.504645538330067 197.87757568359376 24.7728096008301
L 197.87757568359376 174.65507736206064
Q 197.87757568359376 191.9232414245605 185.59417724609375 191.9232414245605
L 20.008208465576175 191.9232414245605
Q 7.724810028076178 191.9232414245605 7.724810028076178 174.65507736206064
L 7.724810028076178 24.7728096008301
Q 7.724810028076178 7.504645538330067 20.008208465576175 7.504645538330067 Z"/>
</defs>

<g transform="matrix( 0.9596405029296875, 0, 0, 1, -17,-130.5) ">
<use xlink:href="#Layer0_0_1_STROKES" transform="matrix( 1.04205322265625, 0, 0, 1, 17.7,130.5) "/>
</g>

<g transform="matrix( 0.9596405029296875, 0, 0, 1.3490753173828125, -91.55,-361.4) ">
<use xlink:href="#Layer0_0_MEMBER_0_1_STROKES" transform="matrix( 1.04205322265625, 0, 0, 0.741241455078125, 95.4,267.85) "/>
</g>
</svg>
